<?xml version="1.0" encoding="UTF-8" standalone="no"?>
<!DOCTYPE svg PUBLIC "-//W3C//DTD SVG 1.1//EN"
 "http://www.w3.org/Graphics/SVG/1.1/DTD/svg11.dtd">
<!-- Generated by graphviz version 2.47.0 (20210316.0004)
 -->
<!-- Title: dependencies Pages: 1 -->
<svg width="972pt" height="211pt"
 viewBox="0.00 0.00 972.00 211.00" xmlns="http://www.w3.org/2000/svg" xmlns:xlink="http://www.w3.org/1999/xlink">
<g id="graph0" class="graph" transform="scale(1 1) rotate(0) translate(4 207)">
<title>dependencies</title>
<polygon fill="white" stroke="transparent" points="-4,4 -4,-207 968,-207 968,4 -4,4"/>
<text text-anchor="start" x="461.01" y="-42.4" font-family="Times-12" font-weight="bold" font-size="14.00">Legend</text>
<polygon fill="#ffffb3" stroke="transparent" points="248,-10 248,-30 268,-30 268,-10 248,-10"/>
<text text-anchor="start" x="271.63" y="-15.4" font-family="Times-12" font-size="14.00"> &#160;Declarations</text>
<polygon fill="#8dd3c7" stroke="transparent" points="361,-10 361,-30 381,-30 381,-10 361,-10"/>
<text text-anchor="start" x="384.73" y="-15.4" font-family="Times-12" font-size="14.00"> &#160;Module</text>
<polygon fill="#80b1d3" stroke="transparent" points="447,-10 447,-30 467,-30 467,-10 447,-10"/>
<text text-anchor="start" x="470.78" y="-15.4" font-family="Times-12" font-size="14.00"> &#160;Bootstrap</text>
<polygon fill="#fdb462" stroke="transparent" points="544,-10 544,-30 564,-30 564,-10 544,-10"/>
<text text-anchor="start" x="567.67" y="-15.4" font-family="Times-12" font-size="14.00"> &#160;Providers</text>
<polygon fill="#fb8072" stroke="transparent" points="640,-10 640,-30 660,-30 660,-10 640,-10"/>
<text text-anchor="start" x="663.73" y="-15.4" font-family="Times-12" font-size="14.00"> &#160;Exports</text>
<g id="clust1" class="cluster">
<title>cluster_RepositoriesModule</title>
<polygon fill="none" stroke="black" stroke-dasharray="1,5" points="8,-70 8,-195 956,-195 956,-70 8,-70"/>
</g>
<g id="clust3" class="cluster">
<title>cluster_RepositoriesModule_imports</title>
<polygon fill="none" stroke="black" points="834,-78 834,-130 948,-130 948,-78 834,-78"/>
</g>
<g id="clust6" class="cluster">
<title>cluster_RepositoriesModule_providers</title>
<polygon fill="none" stroke="black" points="16,-78 16,-130 826,-130 826,-78 16,-78"/>
</g>
<!-- SharedModule -->
<g id="node1" class="node">
<title>SharedModule</title>
<polygon fill="#8dd3c7" stroke="black" points="940.42,-122 937.42,-126 916.42,-126 913.42,-122 841.58,-122 841.58,-86 940.42,-86 940.42,-122"/>
<text text-anchor="middle" x="891" y="-99.8" font-family="Times,serif" font-size="14.00">SharedModule</text>
</g>
<!-- RepositoriesModule -->
<g id="node2" class="node">
<title>RepositoriesModule</title>
<polygon fill="#8dd3c7" stroke="black" points="570.54,-187 567.54,-191 546.54,-191 543.54,-187 441.46,-187 441.46,-151 570.54,-151 570.54,-187"/>
<text text-anchor="middle" x="506" y="-164.8" font-family="Times,serif" font-size="14.00">RepositoriesModule</text>
</g>
<!-- SharedModule&#45;&gt;RepositoriesModule -->
<g id="edge1" class="edge">
<title>SharedModule&#45;&gt;RepositoriesModule</title>
<path fill="none" stroke="black" d="M891,-122.28C891,-143.32 891,-175 891,-175 891,-175 580.87,-175 580.87,-175"/>
<polygon fill="black" stroke="black" points="580.87,-171.5 570.87,-175 580.87,-178.5 580.87,-171.5"/>
</g>
<!-- RepositoriesApiService -->
<g id="node3" class="node">
<title>RepositoriesApiService</title>
<ellipse fill="#fdb462" stroke="black" cx="715" cy="-104" rx="102.5" ry="18"/>
<text text-anchor="middle" x="715" y="-99.8" font-family="Times,serif" font-size="14.00">RepositoriesApiService</text>
</g>
<!-- RepositoriesApiService&#45;&gt;RepositoriesModule -->
<g id="edge2" class="edge">
<title>RepositoriesApiService&#45;&gt;RepositoriesModule</title>
<path fill="none" stroke="black" d="M715,-122.02C715,-139.37 715,-163 715,-163 715,-163 580.7,-163 580.7,-163"/>
<polygon fill="black" stroke="black" points="580.7,-159.5 570.7,-163 580.7,-166.5 580.7,-159.5"/>
</g>
<!-- RepositoriesService -->
<g id="node4" class="node">
<title>RepositoriesService</title>
<ellipse fill="#fdb462" stroke="black" cx="506" cy="-104" rx="88.04" ry="18"/>
<text text-anchor="middle" x="506" y="-99.8" font-family="Times,serif" font-size="14.00">RepositoriesService</text>
</g>
<!-- RepositoriesService&#45;&gt;RepositoriesModule -->
<g id="edge3" class="edge">
<title>RepositoriesService&#45;&gt;RepositoriesModule</title>
<path fill="none" stroke="black" d="M506,-122.11C506,-122.11 506,-140.99 506,-140.99"/>
<polygon fill="black" stroke="black" points="502.5,-140.99 506,-150.99 509.5,-140.99 502.5,-140.99"/>
</g>
<!-- RepositoryApiService -->
<g id="node5" class="node">
<title>RepositoryApiService</title>
<ellipse fill="#fdb462" stroke="black" cx="303" cy="-104" rx="96.71" ry="18"/>
<text text-anchor="middle" x="303" y="-99.8" font-family="Times,serif" font-size="14.00">RepositoryApiService</text>
</g>
<!-- RepositoryApiService&#45;&gt;RepositoriesModule -->
<g id="edge4" class="edge">
<title>RepositoryApiService&#45;&gt;RepositoriesModule</title>
<path fill="none" stroke="black" d="M303,-122.02C303,-139.37 303,-163 303,-163 303,-163 431.21,-163 431.21,-163"/>
<polygon fill="black" stroke="black" points="431.21,-166.5 441.21,-163 431.21,-159.5 431.21,-166.5"/>
</g>
<!-- RepositoryService -->
<g id="node6" class="node">
<title>RepositoryService</title>
<ellipse fill="#fdb462" stroke="black" cx="106" cy="-104" rx="82.24" ry="18"/>
<text text-anchor="middle" x="106" y="-99.8" font-family="Times,serif" font-size="14.00">RepositoryService</text>
</g>
<!-- RepositoryService&#45;&gt;RepositoriesModule -->
<g id="edge5" class="edge">
<title>RepositoryService&#45;&gt;RepositoriesModule</title>
<path fill="none" stroke="black" d="M106,-122.28C106,-143.32 106,-175 106,-175 106,-175 431.29,-175 431.29,-175"/>
<polygon fill="black" stroke="black" points="431.29,-178.5 441.29,-175 431.29,-171.5 431.29,-178.5"/>
</g>
</g>
</svg>
