<?xml version="1.0" encoding="UTF-8" standalone="no"?>
<!DOCTYPE svg PUBLIC "-//W3C//DTD SVG 1.1//EN"
 "http://www.w3.org/Graphics/SVG/1.1/DTD/svg11.dtd">
<!-- Generated by graphviz version 2.47.0 (20210316.0004)
 -->
<!-- Title: dependencies Pages: 1 -->
<svg width="504pt" height="284pt"
 viewBox="0.00 0.00 504.00 284.00" xmlns="http://www.w3.org/2000/svg" xmlns:xlink="http://www.w3.org/1999/xlink">
<g id="graph0" class="graph" transform="scale(1 1) rotate(0) translate(4 280)">
<title>dependencies</title>
<polygon fill="white" stroke="transparent" points="-4,4 -4,-280 500,-280 500,4 -4,4"/>
<text text-anchor="start" x="227.01" y="-42.4" font-family="Times-12" font-weight="bold" font-size="14.00">Legend</text>
<polygon fill="#ffffb3" stroke="transparent" points="14,-10 14,-30 34,-30 34,-10 14,-10"/>
<text text-anchor="start" x="37.63" y="-15.4" font-family="Times-12" font-size="14.00"> &#160;Declarations</text>
<polygon fill="#8dd3c7" stroke="transparent" points="127,-10 127,-30 147,-30 147,-10 127,-10"/>
<text text-anchor="start" x="150.73" y="-15.4" font-family="Times-12" font-size="14.00"> &#160;Module</text>
<polygon fill="#80b1d3" stroke="transparent" points="213,-10 213,-30 233,-30 233,-10 213,-10"/>
<text text-anchor="start" x="236.78" y="-15.4" font-family="Times-12" font-size="14.00"> &#160;Bootstrap</text>
<polygon fill="#fdb462" stroke="transparent" points="310,-10 310,-30 330,-30 330,-10 310,-10"/>
<text text-anchor="start" x="333.67" y="-15.4" font-family="Times-12" font-size="14.00"> &#160;Providers</text>
<polygon fill="#fb8072" stroke="transparent" points="406,-10 406,-30 426,-30 426,-10 406,-10"/>
<text text-anchor="start" x="429.73" y="-15.4" font-family="Times-12" font-size="14.00"> &#160;Exports</text>
<g id="clust1" class="cluster">
<title>cluster_SharedModule</title>
<polygon fill="none" stroke="black" stroke-dasharray="1,5" points="71.5,-70 71.5,-268 424.5,-268 424.5,-70 71.5,-70"/>
</g>
<g id="clust2" class="cluster">
<title>cluster_SharedModule_declarations</title>
<polygon fill="none" stroke="black" points="193.5,-78 193.5,-130 416.5,-130 416.5,-78 193.5,-78"/>
</g>
<g id="clust6" class="cluster">
<title>cluster_SharedModule_exports</title>
<polygon fill="none" stroke="black" points="133.5,-208 133.5,-260 363.5,-260 363.5,-208 133.5,-208"/>
</g>
<g id="clust5" class="cluster">
<title>cluster_SharedModule_imports</title>
<polygon fill="none" stroke="black" points="79.5,-78 79.5,-130 185.5,-130 185.5,-78 79.5,-78"/>
</g>
<!-- AtobTextPipe -->
<g id="node1" class="node">
<title>AtobTextPipe</title>
<polygon fill="#ffffb3" stroke="black" points="408.54,-122 314.46,-122 314.46,-86 408.54,-86 408.54,-122"/>
<text text-anchor="middle" x="361.5" y="-99.8" font-family="Times,serif" font-size="14.00">AtobTextPipe</text>
</g>
<!-- SharedModule -->
<g id="node3" class="node">
<title>SharedModule</title>
<polygon fill="#8dd3c7" stroke="black" points="297.92,-187 294.92,-191 273.92,-191 270.92,-187 199.08,-187 199.08,-151 297.92,-151 297.92,-187"/>
<text text-anchor="middle" x="248.5" y="-164.8" font-family="Times,serif" font-size="14.00">SharedModule</text>
</g>
<!-- AtobTextPipe&#45;&gt;SharedModule -->
<g id="edge1" class="edge">
<title>AtobTextPipe&#45;&gt;SharedModule</title>
<path fill="none" stroke="black" d="M334.88,-122.11C334.88,-141.34 334.88,-169 334.88,-169 334.88,-169 307.74,-169 307.74,-169"/>
<polygon fill="black" stroke="black" points="307.74,-165.5 297.74,-169 307.74,-172.5 307.74,-165.5"/>
</g>
<!-- SafeHtmlPipe -->
<g id="node2" class="node">
<title>SafeHtmlPipe</title>
<polygon fill="#ffffb3" stroke="black" points="295.54,-122 201.46,-122 201.46,-86 295.54,-86 295.54,-122"/>
<text text-anchor="middle" x="248.5" y="-99.8" font-family="Times,serif" font-size="14.00">SafeHtmlPipe</text>
</g>
<!-- SafeHtmlPipe&#45;&gt;SharedModule -->
<g id="edge2" class="edge">
<title>SafeHtmlPipe&#45;&gt;SharedModule</title>
<path fill="none" stroke="black" d="M248.5,-122.11C248.5,-122.11 248.5,-140.99 248.5,-140.99"/>
<polygon fill="black" stroke="black" points="245,-140.99 248.5,-150.99 252,-140.99 245,-140.99"/>
</g>
<!-- AtobTextPipe  -->
<g id="node5" class="node">
<title>AtobTextPipe </title>
<polygon fill="#fb8072" stroke="black" points="355.54,-252 257.46,-252 257.46,-216 355.54,-216 355.54,-252"/>
<text text-anchor="middle" x="306.5" y="-229.8" font-family="Times,serif" font-size="14.00">AtobTextPipe </text>
</g>
<!-- SharedModule&#45;&gt;AtobTextPipe  -->
<g id="edge4" class="edge">
<title>SharedModule&#45;&gt;AtobTextPipe </title>
<path fill="none" stroke="black" stroke-dasharray="5,2" d="M277.59,-187.11C277.59,-187.11 277.59,-205.99 277.59,-205.99"/>
<polygon fill="black" stroke="black" points="274.09,-205.99 277.59,-215.99 281.09,-205.99 274.09,-205.99"/>
</g>
<!-- SafeHtmlPipe  -->
<g id="node6" class="node">
<title>SafeHtmlPipe </title>
<polygon fill="#fb8072" stroke="black" points="239.54,-252 141.46,-252 141.46,-216 239.54,-216 239.54,-252"/>
<text text-anchor="middle" x="190.5" y="-229.8" font-family="Times,serif" font-size="14.00">SafeHtmlPipe </text>
</g>
<!-- SharedModule&#45;&gt;SafeHtmlPipe  -->
<g id="edge5" class="edge">
<title>SharedModule&#45;&gt;SafeHtmlPipe </title>
<path fill="none" stroke="black" stroke-dasharray="5,2" d="M219.4,-187.11C219.4,-187.11 219.4,-205.99 219.4,-205.99"/>
<polygon fill="black" stroke="black" points="215.9,-205.99 219.4,-215.99 222.9,-205.99 215.9,-205.99"/>
</g>
<!-- RouterOutlet -->
<g id="node4" class="node">
<title>RouterOutlet</title>
<polygon fill="#8dd3c7" stroke="black" points="177.1,-122 174.1,-126 153.1,-126 150.1,-122 87.9,-122 87.9,-86 177.1,-86 177.1,-122"/>
<text text-anchor="middle" x="132.5" y="-99.8" font-family="Times,serif" font-size="14.00">RouterOutlet</text>
</g>
<!-- RouterOutlet&#45;&gt;SharedModule -->
<g id="edge3" class="edge">
<title>RouterOutlet&#45;&gt;SharedModule</title>
<path fill="none" stroke="black" d="M159.26,-122.11C159.26,-141.34 159.26,-169 159.26,-169 159.26,-169 189.18,-169 189.18,-169"/>
<polygon fill="black" stroke="black" points="189.18,-172.5 199.18,-169 189.18,-165.5 189.18,-172.5"/>
</g>
</g>
</svg>
