<?xml version="1.0" encoding="UTF-8" standalone="no"?>
<!DOCTYPE svg PUBLIC "-//W3C//DTD SVG 1.1//EN"
 "http://www.w3.org/Graphics/SVG/1.1/DTD/svg11.dtd">
<!-- Generated by graphviz version 2.47.0 (20210316.0004)
 -->
<!-- Title: dependencies Pages: 1 -->
<svg width="1199pt" height="287pt"
 viewBox="0.00 0.00 1199.00 287.00" xmlns="http://www.w3.org/2000/svg" xmlns:xlink="http://www.w3.org/1999/xlink">
<g id="graph0" class="graph" transform="scale(1 1) rotate(0) translate(4 283)">
<title>dependencies</title>
<polygon fill="white" stroke="transparent" points="-4,4 -4,-283 1195,-283 1195,4 -4,4"/>
<text text-anchor="start" x="574.51" y="-42.4" font-family="Times-12" font-weight="bold" font-size="14.00">Legend</text>
<polygon fill="#ffffb3" stroke="transparent" points="361.5,-10 361.5,-30 381.5,-30 381.5,-10 361.5,-10"/>
<text text-anchor="start" x="385.13" y="-15.4" font-family="Times-12" font-size="14.00"> &#160;Declarations</text>
<polygon fill="#8dd3c7" stroke="transparent" points="474.5,-10 474.5,-30 494.5,-30 494.5,-10 474.5,-10"/>
<text text-anchor="start" x="498.23" y="-15.4" font-family="Times-12" font-size="14.00"> &#160;Module</text>
<polygon fill="#80b1d3" stroke="transparent" points="560.5,-10 560.5,-30 580.5,-30 580.5,-10 560.5,-10"/>
<text text-anchor="start" x="584.28" y="-15.4" font-family="Times-12" font-size="14.00"> &#160;Bootstrap</text>
<polygon fill="#fdb462" stroke="transparent" points="657.5,-10 657.5,-30 677.5,-30 677.5,-10 657.5,-10"/>
<text text-anchor="start" x="681.17" y="-15.4" font-family="Times-12" font-size="14.00"> &#160;Providers</text>
<polygon fill="#fb8072" stroke="transparent" points="753.5,-10 753.5,-30 773.5,-30 773.5,-10 753.5,-10"/>
<text text-anchor="start" x="777.23" y="-15.4" font-family="Times-12" font-size="14.00"> &#160;Exports</text>
<g id="clust7" class="cluster">
<title>cluster_RepositoriesModule</title>
<polygon fill="none" stroke="black" stroke-dasharray="1,5" points="8,-146 8,-271 956,-271 956,-146 8,-146"/>
</g>
<g id="clust9" class="cluster">
<title>cluster_RepositoriesModule_imports</title>
<polygon fill="none" stroke="black" points="834,-154 834,-206 948,-206 948,-154 834,-154"/>
</g>
<g id="clust12" class="cluster">
<title>cluster_RepositoriesModule_providers</title>
<polygon fill="none" stroke="black" points="16,-154 16,-206 826,-206 826,-154 16,-154"/>
</g>
<g id="clust13" class="cluster">
<title>cluster_SharedModule</title>
<polygon fill="none" stroke="black" stroke-dasharray="1,5" points="592,-70 592,-138 1183,-138 1183,-70 592,-70"/>
</g>
<g id="clust14" class="cluster">
<title>cluster_SharedModule_declarations</title>
<polygon fill="none" stroke="black" points="952,-78 952,-130 1175,-130 1175,-78 952,-78"/>
</g>
<g id="clust17" class="cluster">
<title>cluster_SharedModule_imports</title>
<polygon fill="none" stroke="black" points="838,-78 838,-130 944,-130 944,-78 838,-78"/>
</g>
<g id="clust18" class="cluster">
<title>cluster_SharedModule_exports</title>
<polygon fill="none" stroke="black" points="600,-78 600,-130 830,-130 830,-78 600,-78"/>
</g>
<!-- SharedModule -->
<g id="node1" class="node">
<title>SharedModule</title>
<polygon fill="#8dd3c7" stroke="black" points="940.42,-198 937.42,-202 916.42,-202 913.42,-198 841.58,-198 841.58,-162 940.42,-162 940.42,-198"/>
<text text-anchor="middle" x="891" y="-175.8" font-family="Times,serif" font-size="14.00">SharedModule</text>
</g>
<!-- RepositoriesModule -->
<g id="node2" class="node">
<title>RepositoriesModule</title>
<polygon fill="#8dd3c7" stroke="black" points="570.54,-263 567.54,-267 546.54,-267 543.54,-263 441.46,-263 441.46,-227 570.54,-227 570.54,-263"/>
<text text-anchor="middle" x="506" y="-240.8" font-family="Times,serif" font-size="14.00">RepositoriesModule</text>
</g>
<!-- SharedModule&#45;&gt;RepositoriesModule -->
<g id="edge1" class="edge">
<title>SharedModule&#45;&gt;RepositoriesModule</title>
<path fill="none" stroke="black" d="M891,-198.28C891,-219.32 891,-251 891,-251 891,-251 580.87,-251 580.87,-251"/>
<polygon fill="black" stroke="black" points="580.87,-247.5 570.87,-251 580.87,-254.5 580.87,-247.5"/>
</g>
<!-- AtobTextPipe  -->
<g id="node10" class="node">
<title>AtobTextPipe </title>
<polygon fill="#fb8072" stroke="black" points="822.04,-122 723.96,-122 723.96,-86 822.04,-86 822.04,-122"/>
<text text-anchor="middle" x="773" y="-99.8" font-family="Times,serif" font-size="14.00">AtobTextPipe </text>
</g>
<!-- SharedModule&#45;&gt;AtobTextPipe  -->
<g id="edge9" class="edge">
<title>SharedModule&#45;&gt;AtobTextPipe </title>
<path fill="none" stroke="black" stroke-dasharray="5,2" d="M841.66,-180C835.83,-180 831.91,-180 831.91,-180 831.91,-180 831.91,-104 831.91,-104 831.91,-104 830.93,-104 830.93,-104"/>
<polygon fill="black" stroke="black" points="832.18,-100.5 822.18,-104 832.18,-107.5 832.18,-100.5"/>
</g>
<!-- SafeHtmlPipe  -->
<g id="node11" class="node">
<title>SafeHtmlPipe </title>
<polygon fill="#fb8072" stroke="black" points="706.04,-122 607.96,-122 607.96,-86 706.04,-86 706.04,-122"/>
<text text-anchor="middle" x="657" y="-99.8" font-family="Times,serif" font-size="14.00">SafeHtmlPipe </text>
</g>
<!-- SharedModule&#45;&gt;SafeHtmlPipe  -->
<g id="edge10" class="edge">
<title>SharedModule&#45;&gt;SafeHtmlPipe </title>
<path fill="none" stroke="black" stroke-dasharray="5,2" d="M876.15,-161.89C876.15,-152.1 876.15,-142 876.15,-142 876.15,-142 659.13,-142 659.13,-142 659.13,-142 659.13,-132.11 659.13,-132.11"/>
<polygon fill="black" stroke="black" points="662.63,-132.11 659.13,-122.11 655.63,-132.11 662.63,-132.11"/>
</g>
<!-- RepositoriesApiService -->
<g id="node3" class="node">
<title>RepositoriesApiService</title>
<ellipse fill="#fdb462" stroke="black" cx="715" cy="-180" rx="102.5" ry="18"/>
<text text-anchor="middle" x="715" y="-175.8" font-family="Times,serif" font-size="14.00">RepositoriesApiService</text>
</g>
<!-- RepositoriesApiService&#45;&gt;RepositoriesModule -->
<g id="edge2" class="edge">
<title>RepositoriesApiService&#45;&gt;RepositoriesModule</title>
<path fill="none" stroke="black" d="M715,-198.02C715,-215.37 715,-239 715,-239 715,-239 580.7,-239 580.7,-239"/>
<polygon fill="black" stroke="black" points="580.7,-235.5 570.7,-239 580.7,-242.5 580.7,-235.5"/>
</g>
<!-- RepositoriesService -->
<g id="node4" class="node">
<title>RepositoriesService</title>
<ellipse fill="#fdb462" stroke="black" cx="506" cy="-180" rx="88.04" ry="18"/>
<text text-anchor="middle" x="506" y="-175.8" font-family="Times,serif" font-size="14.00">RepositoriesService</text>
</g>
<!-- RepositoriesService&#45;&gt;RepositoriesModule -->
<g id="edge3" class="edge">
<title>RepositoriesService&#45;&gt;RepositoriesModule</title>
<path fill="none" stroke="black" d="M506,-198.11C506,-198.11 506,-216.99 506,-216.99"/>
<polygon fill="black" stroke="black" points="502.5,-216.99 506,-226.99 509.5,-216.99 502.5,-216.99"/>
</g>
<!-- RepositoryApiService -->
<g id="node5" class="node">
<title>RepositoryApiService</title>
<ellipse fill="#fdb462" stroke="black" cx="303" cy="-180" rx="96.71" ry="18"/>
<text text-anchor="middle" x="303" y="-175.8" font-family="Times,serif" font-size="14.00">RepositoryApiService</text>
</g>
<!-- RepositoryApiService&#45;&gt;RepositoriesModule -->
<g id="edge4" class="edge">
<title>RepositoryApiService&#45;&gt;RepositoriesModule</title>
<path fill="none" stroke="black" d="M303,-198.02C303,-215.37 303,-239 303,-239 303,-239 431.21,-239 431.21,-239"/>
<polygon fill="black" stroke="black" points="431.21,-242.5 441.21,-239 431.21,-235.5 431.21,-242.5"/>
</g>
<!-- RepositoryService -->
<g id="node6" class="node">
<title>RepositoryService</title>
<ellipse fill="#fdb462" stroke="black" cx="106" cy="-180" rx="82.24" ry="18"/>
<text text-anchor="middle" x="106" y="-175.8" font-family="Times,serif" font-size="14.00">RepositoryService</text>
</g>
<!-- RepositoryService&#45;&gt;RepositoriesModule -->
<g id="edge5" class="edge">
<title>RepositoryService&#45;&gt;RepositoriesModule</title>
<path fill="none" stroke="black" d="M106,-198.28C106,-219.32 106,-251 106,-251 106,-251 431.29,-251 431.29,-251"/>
<polygon fill="black" stroke="black" points="431.29,-254.5 441.29,-251 431.29,-247.5 431.29,-254.5"/>
</g>
<!-- AtobTextPipe -->
<g id="node7" class="node">
<title>AtobTextPipe</title>
<polygon fill="#ffffb3" stroke="black" points="1167.04,-122 1072.96,-122 1072.96,-86 1167.04,-86 1167.04,-122"/>
<text text-anchor="middle" x="1120" y="-99.8" font-family="Times,serif" font-size="14.00">AtobTextPipe</text>
</g>
<!-- AtobTextPipe&#45;&gt;SharedModule -->
<g id="edge6" class="edge">
<title>AtobTextPipe&#45;&gt;SharedModule</title>
<path fill="none" stroke="black" d="M1120,-122.2C1120,-146.36 1120,-186 1120,-186 1120,-186 950.41,-186 950.41,-186"/>
<polygon fill="black" stroke="black" points="950.41,-182.5 940.41,-186 950.41,-189.5 950.41,-182.5"/>
</g>
<!-- SafeHtmlPipe -->
<g id="node8" class="node">
<title>SafeHtmlPipe</title>
<polygon fill="#ffffb3" stroke="black" points="1054.04,-122 959.96,-122 959.96,-86 1054.04,-86 1054.04,-122"/>
<text text-anchor="middle" x="1007" y="-99.8" font-family="Times,serif" font-size="14.00">SafeHtmlPipe</text>
</g>
<!-- SafeHtmlPipe&#45;&gt;SharedModule -->
<g id="edge7" class="edge">
<title>SafeHtmlPipe&#45;&gt;SharedModule</title>
<path fill="none" stroke="black" d="M1007,-122.03C1007,-142.77 1007,-174 1007,-174 1007,-174 950.53,-174 950.53,-174"/>
<polygon fill="black" stroke="black" points="950.53,-170.5 940.53,-174 950.53,-177.5 950.53,-170.5"/>
</g>
<!-- RouterOutlet -->
<g id="node9" class="node">
<title>RouterOutlet</title>
<polygon fill="#8dd3c7" stroke="black" points="935.6,-122 932.6,-126 911.6,-126 908.6,-122 846.4,-122 846.4,-86 935.6,-86 935.6,-122"/>
<text text-anchor="middle" x="891" y="-99.8" font-family="Times,serif" font-size="14.00">RouterOutlet</text>
</g>
<!-- RouterOutlet&#45;&gt;SharedModule -->
<g id="edge8" class="edge">
<title>RouterOutlet&#45;&gt;SharedModule</title>
<path fill="none" stroke="black" d="M905.85,-122.01C905.85,-122.01 905.85,-151.85 905.85,-151.85"/>
<polygon fill="black" stroke="black" points="902.35,-151.85 905.85,-161.85 909.35,-151.85 902.35,-151.85"/>
</g>
</g>
</svg>
